<svg id="Layer_1" data-name="Layer 1" xmlns="http://www.w3.org/2000/svg" viewBox="0 0 151.26 137.37"><defs><style>.cls-1{fill:#960096;}</style></defs><rect class="cls-1" x="49.35" y="16.25" width="3.51" height="43.47"/><rect class="cls-1" x="49.35" y="77.79" width="3.51" height="43.42"/><rect class="cls-1" x="63.4" y="77.79" width="3.51" height="6.07"/><rect class="cls-1" x="63.4" y="53.88" width="3.51" height="5.84"/><rect class="cls-1" x="70.43" y="39.6" width="3.51" height="20.13"/><rect class="cls-1" x="70.43" y="77.79" width="3.51" height="8.76"/><rect class="cls-1" x="14.2" y="16.25" width="3.51" height="27.45"/><rect class="cls-1" x="21.23" y="16.25" width="3.51" height="29.79"/><rect class="cls-1" y="16.25" width="3.51" height="23.35"/><rect class="cls-1" x="7.18" y="16.25" width="3.51" height="25.69"/><rect class="cls-1" x="42.32" y="16.25" width="3.51" height="43.47"/><rect class="cls-1" x="42.32" y="77.79" width="3.51" height="43.42"/><rect class="cls-1" x="35.29" y="77.79" width="3.51" height="43.42"/><rect class="cls-1" x="35.29" y="16.25" width="3.51" height="43.47"/><rect class="cls-1" x="28.26" y="77.79" width="3.51" height="43.42"/><rect class="cls-1" x="28.26" y="16.25" width="3.51" height="43.47"/><rect class="cls-1" x="56.38" y="77.79" width="3.51" height="43.42"/><rect class="cls-1" x="56.38" y="16.25" width="3.51" height="43.47"/><rect class="cls-1" x="84.5" y="77.79" width="3.51" height="25.5"/><rect class="cls-1" x="84.5" y="18.98" width="3.51" height="36"/><rect class="cls-1" x="77.47" y="77.79" width="3.51" height="14.86"/><rect class="cls-1" x="77.47" y="28.07" width="3.51" height="31.65"/><rect class="cls-1" x="91.52" y="77.79" width="3.51" height="35.55"/><rect class="cls-1" x="91.52" y="12.43" width="3.51" height="37.23"/><rect class="cls-1" x="98.55" y="77.79" width="3.51" height="45.55"/><rect class="cls-1" x="105.58" y="77.79" width="3.51" height="53.06"/><rect class="cls-1" x="112.61" y="77.79" width="3.51" height="56.66"/><rect class="cls-1" x="119.64" y="85.11" width="3.51" height="52.26"/><rect class="cls-1" x="126.67" y="92.54" width="3.51" height="44.83"/><rect class="cls-1" x="133.7" y="98.5" width="3.51" height="35.94"/><rect class="cls-1" x="140.72" y="98.5" width="3.51" height="32.35"/><rect class="cls-1" x="147.75" y="95.61" width="3.51" height="28.29"/><rect class="cls-1" x="98.55" y="8.73" width="3.51" height="36.76"/><rect class="cls-1" x="105.58" y="4.49" width="3.51" height="37.6"/><rect class="cls-1" x="112.61" y="1.34" width="3.51" height="38.5"/><rect class="cls-1" x="119.64" width="3.51" height="38.24"/><rect class="cls-1" x="126.67" width="3.51" height="38.24"/><path class="cls-1" d="M54.34,82.31V71.48h4.13a3.49,3.49,0,0,1,2.69,1,3.4,3.4,0,0,1,1,2.44,3.36,3.36,0,0,1-1,2.43,3.45,3.45,0,0,1-2.67,1H55.61v3.9Zm1.27-5.19h2.86a2.34,2.34,0,0,0,1.76-.64,2.12,2.12,0,0,0,0-3,2.35,2.35,0,0,0-1.76-.65H55.61Z" transform="translate(-41.18 -8.13)"/><path class="cls-1" d="M67.48,71.48l3.91,10.83H70.05l-1.26-3.47H64.61l-.52,1.48c-.31.88-.55,1.54-.7,2H62l3.89-10.83ZM65,77.55h3.31q-.34-.92-.87-2.46l-.78-2.24C66.1,74.56,65.55,76.12,65,77.55Z" transform="translate(-41.18 -8.13)"/><path class="cls-1" d="M71.94,84.22V81h.3a1.64,1.64,0,0,0,1.43-1.23,20.37,20.37,0,0,0,.61-4.39l.24-3.94h6.24V81h1.06v3.18H80.53V82.31H73.22v1.91ZM74.55,81h4.93V72.75H75.85l-.23,3.44A11.11,11.11,0,0,1,74.55,81Z" transform="translate(-41.18 -8.13)"/><path class="cls-1" d="M85.4,82.31H83.81V71.48h1.28v9l5.53-9H92.1V82.31H90.82V73.68Z" transform="translate(-41.18 -8.13)"/><path class="cls-1" d="M94.68,79.05V74.72A2.87,2.87,0,0,1,96,72.22a5.17,5.17,0,0,1,3-.9,5.92,5.92,0,0,1,2.08.37,3.79,3.79,0,0,1,1.6,1.16,2.9,2.9,0,0,1,.65,1.87v4.33a2.92,2.92,0,0,1-.65,1.88,3.62,3.62,0,0,1-1.6,1.16,5.67,5.67,0,0,1-2.08.37,5.17,5.17,0,0,1-3-.9A2.89,2.89,0,0,1,94.68,79.05ZM96,74.72V79a1.78,1.78,0,0,0,.9,1.58,4.36,4.36,0,0,0,4.31,0,1.79,1.79,0,0,0,.91-1.58V74.72a1.77,1.77,0,0,0-.91-1.6,4.59,4.59,0,0,0-4.36,0A1.75,1.75,0,0,0,96,74.72Z" transform="translate(-41.18 -8.13)"/><path class="cls-1" d="M114.75,71.48l-4.6,5.29,4.57,5.54h-2.85l-3.33-4.15-.45.45v3.7h-2.24V71.48h2.24V76l3.83-4.5Z" transform="translate(-41.18 -8.13)"/><path class="cls-1" d="M118.74,78.82l-3.58-7.34h2.55l1.52,3.3.6,1.56h.06l.65-1.63L122,71.48h2.48l-4.89,10.83h-2.42Z" transform="translate(-41.18 -8.13)"/><path class="cls-1" d="M131.14,73.62h-2.6l-.2,3.35a12.57,12.57,0,0,1-.21,1.73,6.59,6.59,0,0,1-.46,1.49,3.64,3.64,0,0,1-.81,1.2,3,3,0,0,1-1.24.73,4.42,4.42,0,0,1-1.73.19V80.2a1.71,1.71,0,0,0,1.83-1.2,11.86,11.86,0,0,0,.43-3.08v-.67l.24-3.73h7V82.31h-2.27Z" transform="translate(-41.18 -8.13)"/><path class="cls-1" d="M138.15,75.3h2a4.21,4.21,0,0,1,3,.87,3.35,3.35,0,0,1,.92,2.57,3.4,3.4,0,0,1-1,2.61,3.88,3.88,0,0,1-2.76,1H136V71.48h2.26Zm0,5h2a1.41,1.41,0,0,0,1.6-1.19,1.27,1.27,0,0,0,0-.39,1.43,1.43,0,0,0-1.63-1.57h-2Z" transform="translate(-41.18 -8.13)"/><path class="cls-1" d="M148.79,82.31h-2.26V73.62h-3.07V71.46h8.43v2.16h-3.1Z" transform="translate(-41.18 -8.13)"/><path class="cls-1" d="M156,78.82l-3.58-7.34H155l1.51,3.3.6,1.56h.06l.66-1.63,1.44-3.23h2.48l-4.9,10.83h-2.42Z" transform="translate(-41.18 -8.13)"/><path class="cls-1" d="M162.8,82.31V71.48h4.27a4.21,4.21,0,0,1,1.53.26,3.21,3.21,0,0,1,1.15.69,3.93,3.93,0,0,1,.77,1,3,3,0,0,1,.37,1.19,6.32,6.32,0,0,1,0,1.23A2.91,2.91,0,0,1,170.5,77a4.13,4.13,0,0,1-.76,1,3.42,3.42,0,0,1-1.14.69,4.61,4.61,0,0,1-1.52.25H165v3.35Zm2.2-5.46h2a1.59,1.59,0,0,0,1.22-.48,1.56,1.56,0,0,0,.44-1.08,1.52,1.52,0,0,0-.44-1.07,1.59,1.59,0,0,0-1.22-.48h-2Z" transform="translate(-41.18 -8.13)"/><path class="cls-1" d="M176.62,71.48l3.89,10.83h-2.36l-.94-2.48H174l-.91,2.48h-2.4l3.8-10.83Zm-1.46,3.94-.62,2.35h2.08l-.68-2.36-.34-1.55h-.11Z" transform="translate(-41.18 -8.13)"/></svg>